<svg xmlns="http://www.w3.org/2000/svg" width="32" height="32" fill="none" viewBox="0 0 32 32" id="euro">
  <g clip-path="url(#clip0_10_1261)">
    <path fill="#F8F9F9" d="M27 4.625H4.5C3.46447 4.625 2.625 5.46447 2.625 6.5V21.5C2.625 22.5355 3.46447 23.375 4.5 23.375H27C28.0355 23.375 28.875 22.5355 28.875 21.5V6.5C28.875 5.46447 28.0355 4.625 27 4.625Z"></path>
    <path fill="#023047" d="M27 24H4.5C3.83696 24 3.20107 23.7366 2.73223 23.2678C2.26339 22.7989 2 22.163 2 21.5V6.5C2 5.83696 2.26339 5.20107 2.73223 4.73223C3.20107 4.26339 3.83696 4 4.5 4H27C27.663 4 28.2989 4.26339 28.7678 4.73223C29.2366 5.20107 29.5 5.83696 29.5 6.5V21.5C29.5 22.163 29.2366 22.7989 28.7678 23.2678C28.2989 23.7366 27.663 24 27 24ZM4.5 5.25C4.16848 5.25 3.85054 5.3817 3.61612 5.61612C3.3817 5.85054 3.25 6.16848 3.25 6.5V21.5C3.25 21.8315 3.3817 22.1495 3.61612 22.3839C3.85054 22.6183 4.16848 22.75 4.5 22.75H27C27.3315 22.75 27.6495 22.6183 27.8839 22.3839C28.1183 22.1495 28.25 21.8315 28.25 21.5V6.5C28.25 6.16848 28.1183 5.85054 27.8839 5.61612C27.6495 5.3817 27.3315 5.25 27 5.25H4.5Z"></path>
    <path fill="#CCD6DA" d="M7.625 21.5H5.125C4.95924 21.5 4.80027 21.4342 4.68306 21.3169 4.56585 21.1997 4.5 21.0408 4.5 20.875 4.5 20.7092 4.56585 20.5503 4.68306 20.4331 4.80027 20.3158 4.95924 20.25 5.125 20.25H7.625C7.79076 20.25 7.94973 20.3158 8.06694 20.4331 8.18415 20.5503 8.25 20.7092 8.25 20.875 8.25 21.0408 8.18415 21.1997 8.06694 21.3169 7.94973 21.4342 7.79076 21.5 7.625 21.5zM13.125 21.5H10.625C10.4592 21.5 10.3003 21.4342 10.1831 21.3169 10.0658 21.1997 10 21.0408 10 20.875 10 20.7092 10.0658 20.5503 10.1831 20.4331 10.3003 20.3158 10.4592 20.25 10.625 20.25H13.125C13.2908 20.25 13.4497 20.3158 13.5669 20.4331 13.6842 20.5503 13.75 20.7092 13.75 20.875 13.75 21.0408 13.6842 21.1997 13.5669 21.3169 13.4497 21.4342 13.2908 21.5 13.125 21.5zM6.375 19H5.125C4.95924 19 4.80027 18.9342 4.68306 18.8169 4.56585 18.6997 4.5 18.5408 4.5 18.375 4.5 18.2092 4.56585 18.0503 4.68306 17.9331 4.80027 17.8158 4.95924 17.75 5.125 17.75H6.375C6.54076 17.75 6.69973 17.8158 6.81694 17.9331 6.93415 18.0503 7 18.2092 7 18.375 7 18.5408 6.93415 18.6997 6.81694 18.8169 6.69973 18.9342 6.54076 19 6.375 19V19zM10.125 19H8.875C8.70924 19 8.55027 18.9342 8.43306 18.8169 8.31585 18.6997 8.25 18.5408 8.25 18.375 8.25 18.2092 8.31585 18.0503 8.43306 17.9331 8.55027 17.8158 8.70924 17.75 8.875 17.75H10.125C10.2908 17.75 10.4497 17.8158 10.5669 17.9331 10.6842 18.0503 10.75 18.2092 10.75 18.375 10.75 18.5408 10.6842 18.6997 10.5669 18.8169 10.4497 18.9342 10.2908 19 10.125 19zM13.875 19H12.625C12.4592 19 12.3003 18.9342 12.1831 18.8169 12.0658 18.6997 12 18.5408 12 18.375 12 18.2092 12.0658 18.0503 12.1831 17.9331 12.3003 17.8158 12.4592 17.75 12.625 17.75H13.875C14.0408 17.75 14.1997 17.8158 14.3169 17.9331 14.4342 18.0503 14.5 18.2092 14.5 18.375 14.5 18.5408 14.4342 18.6997 14.3169 18.8169 14.1997 18.9342 14.0408 19 13.875 19zM10.125 7.75H6.375C5.87772 7.75 5.40081 7.94754 5.04917 8.29917 4.69754 8.65081 4.5 9.12772 4.5 9.625V12.125C4.5 12.6223 4.69754 13.0992 5.04917 13.4508 5.40081 13.8025 5.87772 14 6.375 14H10.125C10.6223 14 11.0992 13.8025 11.4508 13.4508 11.8025 13.0992 12 12.6223 12 12.125V9.625C12 9.12772 11.8025 8.65081 11.4508 8.29917 11.0992 7.94754 10.6223 7.75 10.125 7.75V7.75zM10.75 9.625V10.25H8.25V9H10.125C10.2908 9 10.4497 9.06585 10.5669 9.18306 10.6842 9.30027 10.75 9.45924 10.75 9.625zM5.75 12.125V9.625C5.75 9.45924 5.81585 9.30027 5.93306 9.18306 6.05027 9.06585 6.20924 9 6.375 9H7V12.75H6.375C6.20924 12.75 6.05027 12.6842 5.93306 12.5669 5.81585 12.4497 5.75 12.2908 5.75 12.125zM10.125 12.75H8.25V11.5H10.75V12.125C10.75 12.2908 10.6842 12.4497 10.5669 12.5669 10.4497 12.6842 10.2908 12.75 10.125 12.75z"></path>
    <path fill="#6457FF" d="M23 31C27.4183 31 31 27.4183 31 23C31 18.5817 27.4183 15 23 15C18.5817 15 15 18.5817 15 23C15 27.4183 18.5817 31 23 31Z"></path>
    <g clip-path="url(#clip1_10_1261)">
      <path fill="#F79410" d="M26.6136 12.859V12.7425H26.5832L26.5481 12.8224L26.5132 12.7425H26.4828V12.859H26.5044V12.7712L26.5372 12.8469H26.5595L26.5923 12.771V12.859H26.6137H26.6136ZM26.4211 12.859V12.7624H26.46V12.7428H26.3608V12.7624H26.3996V12.859H26.4209H26.4211Z"></path>
      <path fill="#FF5F00" d="M23.1661 13.3585H20.5413V8.64136H23.1662L23.1661 13.3585Z"></path>
      <path fill="#EB001B" d="M20.7077 11C20.7077 10.0431 21.1557 9.19074 21.8534 8.64143C21.3253 8.22501 20.6721 7.99901 19.9996 8C18.3429 8 17 9.34313 17 11C17 12.6569 18.3429 14 19.9996 14C20.6722 14.001 21.3254 13.775 21.8535 13.3586C21.1558 12.8094 20.7077 11.9569 20.7077 11Z"></path>
      <path fill="#F79E1B" d="M26.7073 11C26.7073 12.6569 25.3643 14 23.7077 14C23.035 14.001 22.3818 13.775 21.8536 13.3586C22.5514 12.8093 22.9995 11.9569 22.9995 11C22.9995 10.0431 22.5514 9.19074 21.8536 8.64143C22.3818 8.22503 23.035 7.99903 23.7076 8C25.3643 8 26.7072 9.34313 26.7072 11"></path>
    </g>
    <path fill="#fff" d="M23.2543 19.1996C24.3724 19.1996 25.421 19.8128 26.0591 20.8399C26.1757 21.0275 26.4224 21.0852 26.6099 20.9686C26.7976 20.852 26.8552 20.6054 26.7386 20.4178C25.9535 19.1541 24.6509 18.3997 23.2543 18.3997C21.38 18.3997 19.7882 19.7456 19.245 21.5994H18.8494C18.6285 21.5994 18.4494 21.7785 18.4494 21.9994C18.4494 22.2203 18.6285 22.3994 18.8494 22.3994H19.0811C19.0334 22.7977 19.0333 23.2003 19.0811 23.5993H18.8494C18.6285 23.5993 18.4494 23.7784 18.4494 23.9992C18.4494 24.2201 18.6285 24.3992 18.8494 24.3992H19.2449C19.7881 26.253 21.3799 27.599 23.2542 27.599C24.6509 27.599 25.9534 26.8446 26.7385 25.5809C26.8551 25.3932 26.7975 25.1466 26.6098 25.0301C26.4222 24.9135 26.1755 24.9711 26.059 25.1587C25.4209 26.1858 24.3724 26.799 23.2542 26.799C21.8179 26.799 20.5872 25.8034 20.0859 24.3992H23.2991C23.5199 24.3992 23.699 24.2201 23.699 23.9992C23.699 23.7784 23.5199 23.5993 23.2991 23.5993H19.8882C19.831 23.1995 19.8309 22.7999 19.8882 22.3994H23.2991C23.5199 22.3994 23.699 22.2203 23.699 21.9994C23.699 21.7785 23.5199 21.5994 23.2991 21.5994H20.086C20.5873 20.1952 21.818 19.1996 23.2543 19.1996V19.1996Z"></path>
  </g>
  <defs>
    <clipPath id="clip0_10_1261">
      <rect width="32" height="32" fill="#fff"></rect>
    </clipPath>
    <clipPath id="clip1_10_1261">
      <rect width="10" height="6" fill="#fff" transform="translate(17 8)"></rect>
    </clipPath>
  </defs>
</svg>
